<svg width="152" height="153" fill="none" xmlns="http://www.w3.org/2000/svg"><ellipse cx="99.423" cy="102.85" rx="43.775" ry="8.5" fill="url(#8tu35vdola)"/><path d="M8.898 69.7l-3.335 2.634 3.335-2.635zm20.765-17.697a4.25 4.25 0 0 0-7.53 3.942l7.53-3.942zm59.442 12.472c-15.682 10.07-31.524 15.26-45.14 15.607-13.571.346-24.68-4.091-31.732-13.017l-6.67 5.269c9.098 11.515 23.064 16.641 38.618 16.245 15.51-.394 32.846-6.247 49.517-16.952l-4.593-7.152zm-76.872 2.59c-4.797-6.071-3.5-14.41 1.797-20.818 5.315-6.432 13.123-9.099 19.616-5.543l4.083-7.456c-11.357-6.219-23.405-.7-30.251 7.584C.61 49.14-2.562 62.05 5.563 72.334l6.67-5.27zm21.413-26.361c3.413 1.869 4.817 4.285 5.247 6.494.457 2.349-.125 4.816-1.309 6.654-1.233 1.915-2.626 2.494-3.445 2.48-.615-.01-2.42-.403-4.476-4.329l-7.53 3.942c2.84 5.425 6.937 8.804 11.863 8.886 4.724.08 8.513-2.927 10.735-6.377 2.27-3.526 3.416-8.204 2.506-12.88-.938-4.818-3.996-9.307-9.508-12.325l-4.083 7.455z" fill="url(#li6b9zr1xb)"/><mask id="a" style="mask-type:alpha" maskUnits="userSpaceOnUse" x="55" y="0" width="91" height="106"><path fill-rule="evenodd" clip-rule="evenodd" d="M100.698 8.121c-2.747 0-5.327.17-7.749.495-4.043.541-8.18-2.283-9.684-6.075-1.488-3.748-5.58-3.079-7.636.39-4.901 8.271-11.424 20.867-13.945 29.737-5.822 13.78-6.036 30.36-6.036 41.328 0 21.83 20.639 31.45 45.05 31.45 24.411 0 45.05-9.62 45.05-31.45 0-9.87-.174-24.282-4.45-37.11a15.947 15.947 0 0 1-.489-1.876c-1.798-8.804-9.624-23.066-15.233-32.135-2.118-3.425-6.218-4.09-7.705-.347-1.497 3.766-5.596 6.586-9.615 6.063a58.562 58.562 0 0 0-7.558-.47z" fill="url(#xfc67nh9ec)"/></mask><g mask="url(#a)"><rect x="53.098" y="-6.801" width="96.05" height="119.85" rx="10.838" fill="url(#dbqt38678e)"/><path fill-rule="evenodd" clip-rule="evenodd" d="M100.273 12.749c10.093 0 18.275-4.186 18.275-9.35s-8.182-9.35-18.275-9.35c-10.093 0-18.275 4.186-18.275 9.35s8.182 9.35 18.275 9.35zm7.334-5.454c1.191-.011 3.527-.96 3.527-1.947 0-2.367-4.704-7.29-10.901-7.29-6.198 0-10.901 4.142-10.901 6.509 0 1.168 1.924 2.384 3.527 2.727 1.037.222 2.13.077 3.433-.095 1.044-.138 2.224-.295 3.62-.295 2.1 0 3.798.138 5.179.25.992.081 1.821.148 2.516.141z" fill="#111B2C" fill-opacity=".21"/></g><path opacity=".652" fill-rule="evenodd" clip-rule="evenodd" d="M112.896 64.422c-1.082.288-2.254.032-3.214-.701-.411-.314-.536-.923-.279-1.36.257-.437.798-.537 1.209-.224.53.405 1.177.546 1.773.388.597-.16 1.086-.603 1.342-1.217.198-.476.717-.659 1.159-.408.443.251.641.84.442 1.317-.463 1.113-1.35 1.916-2.432 2.205z" fill="#05070B"/><ellipse opacity=".157" cx="78.387" cy="35.961" rx="17.211" ry="17.136" transform="rotate(.37 78.387 35.961)" fill="url(#i5lnucjajf)"/><path opacity=".2" fill-rule="evenodd" clip-rule="evenodd" d="M77.652 20.656L64.455 45.413l10.296 6.604L88.108 24.21l-10.456-3.554z" fill="#6D97CE"/><ellipse opacity=".157" cx="122.979" cy="36.25" rx="17.211" ry="17.136" transform="rotate(.37 122.979 36.25)" fill="url(#hrjtrxba1g)"/><mask id="b" style="mask-type:alpha" maskUnits="userSpaceOnUse" x="105" y="19" width="36" height="35"><ellipse cx="122.979" cy="36.25" rx="17.211" ry="17.136" transform="rotate(.37 122.979 36.25)" fill="#fff"/></mask><g mask="url(#b)"><path opacity=".2" fill-rule="evenodd" clip-rule="evenodd" d="M122.153 20.945l-13.197 24.757 10.297 6.604L132.609 24.5l-10.456-3.554z" fill="#6D97CE"/></g><path fill-rule="evenodd" clip-rule="evenodd" d="M122.504 52.45c-8.795-.057-15.879-7.183-15.823-15.917.056-8.733 7.231-15.767 16.026-15.71 8.795.057 15.879 7.183 15.823 15.916-.056 8.733-7.232 15.767-16.026 15.71zm-44.467-.286c-8.795-.057-15.879-7.183-15.822-15.916.056-8.733 7.23-15.767 16.026-15.71 8.795.056 15.879 7.182 15.822 15.915-.056 8.734-7.23 15.768-16.026 15.71zm61.461-25.118c-1.32-1.533-3.833-3.524-5.338-4.662-.388-.31-.784-.608-1.196-.887l-.026-.02v.002a18.433 18.433 0 0 0-10.214-3.146 18.442 18.442 0 0 0-13.092 5.3c-1.625 1.489-3.029 3.121-4.479 4.72-1.838 2.027-2.911 1.02-4.735 1.008-1.824-.012-2.91.981-4.721-1.069-1.43-1.617-2.813-3.268-4.419-4.778A18.573 18.573 0 0 0 78.2 18.046c-3.787-.025-7.538 1.087-10.31 3.014v-.002l.029.02c-.416.273-.79.566-1.181.872-1.52 1.119-4.124 3.076-5.464 4.592-1.991 2.251-6.311 2.375-6.311 2.375l-.03 4.68s2.586-.135 3.415.852c.49.582 1.005 3.373 1.856 6.297.258 1.04.63 2.045 1.059 3.008.4.957.871 1.844 1.41 2.573l.006-.005a18.451 18.451 0 0 0 15.34 8.332A18.441 18.441 0 0 0 94.88 44.007l.015-.018.043-.07c1.338-2.222 2.71-8.321 3.318-9.288.614-.978 2.135-1.044 2.135-1.044s1.52.085 2.121 1.07c.596.976 1.889 7.092 3.197 9.33l.043.072.013.018a18.441 18.441 0 0 0 16.723 10.864 18.447 18.447 0 0 0 15.443-8.134l.001.005c.548-.722 1.02-1.603 1.433-2.555.442-.957.807-1.957 1.079-2.994.888-2.912 1.394-5.697 1.891-6.273.843-.976 3.344-.809 3.344-.809l.03-4.68s-4.249-.178-6.211-2.455z" fill="#1B283E"/><path d="M139.498 27.046l.462-.398-.462.398zm-5.338-4.662l-.381.475.013.01.368-.485zm-1.196-.887l-.362.49.02.014.342-.504zm-.026-.02l.361-.49-.948.655.587-.165zm0 .002l-.34.506.927-.67-.587.164zm-23.306 2.154l.412.449.016-.015-.428-.434zm-4.479 4.72l-.451-.41-.001.001.452.41zm-9.456-.06l.456-.404-.456.403zm-4.419-4.779l-.433.43.016.014.417-.444zM67.89 21.06l-.61-.004.958.505-.348-.5zm0-.002l.34-.505-.95.501.61.004zm.029.02l.335.509.005-1.014-.34.505zm-1.181.872l.36.49.015-.01-.375-.48zm-5.464 4.592l-.457-.404.457.404zm-6.311 2.375l-.018-.61-.592.606.61.004zm-.03 4.68l-.61-.004.641.612-.032-.608zm3.415.852l-.466.392.466-.392zm1.856 6.297l.591-.147-.006-.024-.585.17zm1.059 3.008l.562-.236-.006-.012-.556.248zm1.41 2.573l-.49.362.89.097-.4-.46zm.006-.005l.51-.334-.91-.126.4.46zm32.201-2.315l-.472-.385-.08.128.552.257zm.015-.018l.473.384.046-.064-.519-.32zm.043-.07l.519.32.003-.006-.522-.315zm3.318-9.288l.516.324-.516-.325zm2.135-1.044l.034-.608h-.06l.026.608zm2.121 1.07l-.52.318.52-.317zm3.197 9.33l-.526.308.004.006.522-.313zm.043.072l-.523.313.033.05.49-.363zm.013.018l.556-.25-.066-.113-.49.363zm32.166 2.73l.591-.145-1.097-.196.506.34zm.001.005l-.592.144 1.077.224-.485-.368zm1.433-2.555l-.553-.255-.006.013.559.242zm1.079-2.994l-.583-.178-.006.023.589.155zm1.891-6.273l.461.398h.001l-.462-.398zm3.344-.809l-.041.608.65-.604-.609-.004zm.03-4.68l.609.004-.583-.612-.026.608zm-6.211-2.455l.462-.398-.462.398zm-16.99 24.794c-8.463-.054-15.272-6.91-15.218-15.303l-1.218-.007c-.059 9.074 7.3 16.47 16.428 16.529l.008-1.219zM107.29 36.537c.054-8.392 6.951-15.16 15.413-15.105l.008-1.218c-9.127-.059-16.581 7.242-16.639 16.316l1.218.007zm15.413-15.105c8.463.055 15.272 6.91 15.218 15.303l1.218.008c.059-9.074-7.301-16.47-16.428-16.53l-.008 1.22zm15.218 15.303c-.054 8.393-6.951 15.16-15.413 15.105l-.008 1.219c9.127.059 16.581-7.242 16.639-16.316l-1.218-.008zm-59.88 14.82c-8.462-.055-15.271-6.91-15.217-15.303l-1.219-.008c-.058 9.074 7.3 16.47 16.428 16.53l.008-1.22zM62.824 36.252c.054-8.393 6.95-15.16 15.413-15.105l.008-1.219c-9.128-.059-16.581 7.242-16.64 16.316l1.219.008zm15.413-15.105c8.463.054 15.271 6.91 15.217 15.302l1.218.008c.059-9.074-7.3-16.47-16.427-16.529l-.008 1.219zm15.217 15.302c-.054 8.393-6.95 15.16-15.413 15.106l-.008 1.218c9.128.059 16.58-7.242 16.64-16.316l-1.219-.008zm46.506-9.8c-1.369-1.59-3.934-3.617-5.433-4.751l-.735.972c1.512 1.143 3.973 3.097 5.245 4.573l.923-.795zm-5.419-4.74a18.856 18.856 0 0 0-1.236-.917l-.683 1.01a17.8 17.8 0 0 1 1.157.857l.762-.95zm-1.216-.903l-.026-.019-.723.98.026.02.723-.98zm-.974.636l.001.002 1.173-.329-.001-.002-1.173.329zm.927-.668a19.043 19.043 0 0 0-10.551-3.25l-.007 1.218a17.827 17.827 0 0 1 9.878 3.043l.68-1.01zm-10.551-3.25a19.051 19.051 0 0 0-13.522 5.474l.855.869a17.83 17.83 0 0 1 12.66-5.125l.007-1.218zm-13.506 5.46c-1.653 1.513-3.083 3.177-4.519 4.76l.902.819c1.465-1.616 2.841-3.217 4.44-4.681l-.823-.899zm-4.52 4.76c-.424.468-.776.73-1.075.876a1.835 1.835 0 0 1-.845.192c-.303 0-.611-.053-1.012-.12a8.28 8.28 0 0 0-1.347-.14l-.008 1.218c.403.003.769.06 1.155.124.371.062.788.136 1.212.136.442 0 .899-.079 1.382-.316.475-.234.946-.606 1.441-1.152l-.903-.818zm-4.279.808a8.292 8.292 0 0 0-1.35.123c-.4.062-.71.11-1.012.107a1.837 1.837 0 0 1-.842-.203c-.298-.15-.647-.417-1.065-.89l-.913.806c.488.552.954.93 1.426 1.17.48.244.937.33 1.379.335.424.006.841-.064 1.213-.12.386-.06.753-.113 1.156-.11l.008-1.218zm-4.269-.863c-1.415-1.602-2.825-3.284-4.458-4.818l-.834.887c1.58 1.485 2.935 3.104 4.38 4.738l.912-.807zm-4.442-4.803a19.182 19.182 0 0 0-13.507-5.65l-.007 1.219a17.964 17.964 0 0 1 12.648 5.288l.866-.857zm-13.507-5.65c-3.9-.024-7.776 1.118-10.662 3.124l.696 1c2.658-1.848 6.284-2.929 9.959-2.905l.007-1.218zM68.5 21.065v-.002l-1.218-.008v.002l1.218.008zm-.95.5l.029.018.681-1.01-.028-.019-.682 1.01zm.035-.995c-.44.29-.834.597-1.221.9l.75.96c.394-.308.748-.585 1.14-.842l-.669-1.018zm-1.208.89c-1.505 1.108-4.167 3.106-5.559 4.68l.913.806c1.289-1.457 3.834-3.375 5.369-4.505l-.723-.981zm-5.559 4.68c-.867.98-2.291 1.538-3.585 1.841a13.523 13.523 0 0 1-2.248.326l-.031.001h-.008l.018.61.017.608h.017a8.93 8.93 0 0 0 .194-.01 14.733 14.733 0 0 0 2.32-.348c1.364-.321 3.096-.951 4.22-2.222l-.914-.807zm-6.464 2.774l-.03 4.68 1.219.008.03-4.68-1.219-.008zm.58 4.684l.031.608h.021c.017-.002.042-.002.075-.003.066-.002.163-.003.283-.002.24.003.567.016.914.057.35.042.704.111 1.006.217.31.109.511.239.619.367l.933-.784c-.307-.365-.74-.589-1.149-.732a6.042 6.042 0 0 0-1.264-.277 9.836 9.836 0 0 0-1.464-.061h-.026l-.007.001h-.003l.03.609zm2.95 1.244c.037.045.131.222.265.62.123.368.256.845.403 1.412.292 1.12.64 2.57 1.068 4.043l1.17-.34c-.422-1.452-.758-2.858-1.059-4.01a23.87 23.87 0 0 0-.427-1.492c-.128-.381-.282-.772-.489-1.018l-.932.785zm1.73 6.051a18.756 18.756 0 0 0 1.093 3.11l1.113-.496a17.515 17.515 0 0 1-1.024-2.907l-1.182.293zM60.7 43.99c.413.987.906 1.92 1.482 2.7l.98-.724c-.502-.679-.95-1.52-1.338-2.447l-1.124.471zm2.372 2.797l.006-.005-.8-.919-.006.005.8.919zm-.904-.13a19.06 19.06 0 0 0 15.845 8.607l.008-1.218a17.842 17.842 0 0 1-14.834-8.057l-1.019.668zm15.845 8.607a19.05 19.05 0 0 0 17.419-11l-1.105-.513a17.832 17.832 0 0 1-16.306 10.295l-.008 1.218zm17.34-10.872l.014-.018-.946-.768-.014.017.945.769zm.06-.082l.043-.07-1.037-.64-.044.07 1.038.64zm.046-.076c.716-1.19 1.414-3.351 1.993-5.251.296-.972.563-1.882.797-2.62.116-.369.221-.684.314-.933.098-.262.168-.41.208-.474l-1.032-.649a4.053 4.053 0 0 0-.317.697c-.104.278-.216.616-.335.99-.236.746-.51 1.682-.8 2.634-.593 1.947-1.25 3.945-1.871 4.977l1.043.629zm3.312-9.278c.191-.306.556-.508.959-.63a3.34 3.34 0 0 1 .646-.126l.035-.003h.007-.002l-.026-.609-.027-.608h-.01l-.019.001a3.003 3.003 0 0 0-.276.03 4.428 4.428 0 0 0-.682.15c-.512.155-1.215.474-1.637 1.146l1.032.649zm1.619-1.368l-.035.608h-.001c-.001 0 0 0 0 0h.006l.036.004a3.375 3.375 0 0 1 .645.135c.4.127.762.333.95.641l1.04-.635c-.413-.677-1.112-1.006-1.622-1.168a4.532 4.532 0 0 0-.955-.191l-.02-.001h-.008l-.001-.001h-.001l-.034.608zm1.601 1.388c.039.064.107.215.201.477.09.251.191.567.303.937.224.742.479 1.654.762 2.63.555 1.907 1.225 4.078 1.925 5.276l1.052-.615c-.608-1.04-1.239-3.047-1.807-5.001-.277-.955-.539-1.894-.766-2.643a21.892 21.892 0 0 0-.322-.995 3.993 3.993 0 0 0-.308-.7l-1.04.634zm3.195 9.326l.042.07 1.045-.625-.042-.071-1.045.626zm.075.12l.014.019.979-.726-.014-.018-.979.726zm-.053-.095a19.05 19.05 0 0 0 17.275 11.224l.008-1.219a17.83 17.83 0 0 1-16.171-10.504l-1.112.5zm17.275 11.224a19.056 19.056 0 0 0 15.952-8.403l-1.011-.68a17.834 17.834 0 0 1-14.933 7.864l-.008 1.219zm14.855-8.599l.001.005 1.183-.29-.001-.004-1.183.29zm1.078.229c.588-.774 1.083-1.703 1.507-2.68l-1.118-.485c-.402.926-.851 1.759-1.359 2.428l.97.737zm1.501-2.667c.456-.988.834-2.022 1.115-3.096l-1.178-.31a17.483 17.483 0 0 1-1.043 2.895l1.106.51zm1.109-3.073c.448-1.47.802-2.916 1.098-4.034.15-.565.283-1.04.407-1.407a4.57 4.57 0 0 1 .169-.439 1.411 1.411 0 0 1 .093-.17l.002-.002-.922-.796c-.212.246-.368.638-.496 1.016-.138.409-.281.92-.431 1.486-.303 1.147-.646 2.55-1.086 3.99l1.166.356zm1.77-6.052c.112-.13.313-.256.615-.36a4.61 4.61 0 0 1 .978-.203 8.104 8.104 0 0 1 1.228-.037h.017a.07.07 0 0 1 .004.001l.04-.608.04-.607h-.003l-.007-.001-.026-.002a8.954 8.954 0 0 0-.407-.01c-.263 0-.625.01-1.019.053-.391.043-.831.12-1.242.262-.404.139-.831.358-1.141.716l.923.796zm3.491-1.203l.03-4.68-1.218-.008-.03 4.68 1.218.008zm-.579-4.684l.026-.608h-.007l-.031-.002a11.15 11.15 0 0 1-.609-.057c-.41-.05-.977-.14-1.6-.297-1.27-.32-2.672-.895-3.528-1.889l-.923.795c1.105 1.284 2.809 1.937 4.154 2.275a14.347 14.347 0 0 0 2.434.389l.041.002h.017l.026-.608z" fill="#1B283E"/><path fill-rule="evenodd" clip-rule="evenodd" d="M122.504 52.45c-8.795-.057-15.879-7.183-15.823-15.917.056-8.733 7.231-15.767 16.026-15.71 8.795.057 15.879 7.183 15.823 15.916-.056 8.733-7.232 15.767-16.026 15.71zm-44.467-.286c-8.795-.057-15.879-7.183-15.822-15.916.056-8.733 7.23-15.767 16.026-15.71 8.795.056 15.879 7.182 15.822 15.915-.056 8.734-7.23 15.768-16.026 15.71zm61.461-25.118c-1.32-1.533-3.833-3.524-5.338-4.662a18.4 18.4 0 0 0-1.196-.887l-.026-.02v.002a18.433 18.433 0 0 0-10.214-3.146 18.442 18.442 0 0 0-13.092 5.3c-1.625 1.489-3.029 3.121-4.479 4.72-1.838 2.027-2.911 1.02-4.735 1.008-1.824-.012-2.91.981-4.721-1.069-1.43-1.617-2.813-3.268-4.419-4.778A18.573 18.573 0 0 0 78.2 18.046c-3.787-.025-7.538 1.087-10.31 3.014v-.002l.029.02c-.416.273-.79.566-1.181.872-1.52 1.119-4.124 3.076-5.464 4.592-1.991 2.251-6.311 2.375-6.311 2.375l-.03 4.68s2.586-.135 3.415.852c.49.582 1.005 3.373 1.856 6.297.258 1.04.63 2.045 1.059 3.008.4.957.871 1.844 1.41 2.573l.006-.005a18.451 18.451 0 0 0 15.34 8.332A18.441 18.441 0 0 0 94.88 44.007l.015-.018.043-.07c1.338-2.222 2.71-8.321 3.318-9.288.614-.978 2.135-1.044 2.135-1.044s1.52.085 2.121 1.07c.596.976 1.889 7.092 3.197 9.33l.043.072.013.018a18.441 18.441 0 0 0 16.723 10.864 18.447 18.447 0 0 0 15.443-8.134l.001.005c.548-.722 1.02-1.603 1.433-2.555.442-.957.807-1.957 1.079-2.994.888-2.912 1.394-5.697 1.891-6.273.843-.976 3.344-.809 3.344-.809l.03-4.68s-4.249-.178-6.211-2.455z" fill="#111B2C"/><path d="M139.498 27.046l.425-.366-.425.366zm-5.338-4.662l-.351.437.013.01.338-.447zm-1.196-.887l-.333.45.019.014.314-.464zm-.026-.02l.332-.45-.872.602.54-.152zm0 .002l-.313.465.852-.617-.539.152zm-23.306 2.154l.379.413.014-.014-.393-.4zm-4.479 4.72l-.415-.376.415.376zm-9.456-.06l.42-.372-.42.371zm-4.419-4.779l-.398.395.015.014.383-.409zM67.89 21.06l-.56-.003.88.463-.32-.46zm0-.002l.313-.464-.873.46.56.004zm.029.02l.308.468.005-.933-.313.465zm-1.181.872l.332.45.013-.01-.345-.44zm-5.464 4.592l-.42-.371.42.37zm-6.311 2.375l-.016-.56-.544.556.56.004zm-.03 4.68l-.56-.004.589.563-.03-.56zm3.415.852l-.428.36.428-.36zm1.856 6.297l.544-.136-.006-.021-.538.157zm1.059 3.008l.517-.217-.005-.011-.512.228zm1.41 2.573l-.45.333.818.089-.368-.422zm.006-.005l.468-.307-.836-.116.368.423zm32.201-2.315l-.434-.354-.074.118.508.236zm.015-.018l.435.353.042-.06-.477-.293zm.043-.07l.477.293.003-.005-.48-.289zm3.318-9.288l.474.298-.474-.299zm2.135-1.044l.031-.56h-.055l.024.56zm2.121 1.07l-.478.293.478-.292zm3.197 9.33l-.483.284.003.005.48-.288zm.043.072l-.481.288.031.045.45-.333zm.013.018l.511-.23-.061-.104-.45.334zm32.166 2.73l.544-.133-1.009-.18.465.313zm.001.005l-.545.132.991.206-.446-.338zm1.433-2.555l-.509-.235-.005.012.514.223zm1.079-2.994l-.536-.164-.006.021.542.143zm1.891-6.273l.424.366-.424-.366zm3.344-.809l-.037.56.597-.556-.56-.004zm.03-4.68l.56.004-.536-.563-.024.56zm-6.211-2.455l.425-.366-.425.366zm-16.991 24.843c-8.489-.054-15.32-6.931-15.266-15.352l-1.12-.007c-.058 9.047 7.278 16.421 16.379 16.48l.007-1.12zm-15.266-15.352c.055-8.42 6.973-15.209 15.463-15.154l.007-1.12c-9.101-.059-16.532 7.22-16.59 16.267l1.12.007zm15.463-15.154c8.489.055 15.32 6.932 15.266 15.352l1.12.007c.059-9.046-7.279-16.42-16.379-16.48l-.007 1.121zm15.266 15.352c-.054 8.42-6.974 15.209-15.463 15.154l-.007 1.12c9.1.06 16.532-7.22 16.59-16.267l-1.12-.007zM78.04 51.604c-8.489-.055-15.32-6.932-15.265-15.352l-1.12-.008c-.059 9.047 7.278 16.422 16.378 16.48l.007-1.12zM62.775 36.252c.054-8.42 6.973-15.209 15.462-15.154l.007-1.12c-9.1-.06-16.531 7.22-16.59 16.266l1.12.008zm15.462-15.154c8.49.054 15.32 6.931 15.266 15.352l1.12.007c.059-9.047-7.278-16.421-16.379-16.48l-.007 1.12zM93.503 36.45c-.054 8.42-6.973 15.208-15.463 15.154l-.007 1.12c9.101.059 16.532-7.22 16.59-16.267l-1.12-.008zm46.42-9.77c-1.365-1.584-3.926-3.609-5.425-4.743l-.676.894c1.511 1.143 3.976 3.1 5.252 4.58l.849-.73zm-5.413-4.733a18.865 18.865 0 0 0-1.232-.914l-.628.928c.397.269.781.557 1.159.86l.701-.874zm-1.214-.901l-.026-.02-.665.902.026.02.665-.902zm-.898.583l.001.002 1.078-.304v-.002l-1.079.304zm.853-.614a18.995 18.995 0 0 0-10.524-3.243l-.007 1.12a17.877 17.877 0 0 1 9.905 3.052l.626-.93zm-10.524-3.243a18.999 18.999 0 0 0-13.487 5.461l.785.8a17.883 17.883 0 0 1 12.695-5.14l.007-1.12zm-13.473 5.448c-1.65 1.511-3.079 3.173-4.516 4.757l.83.753c1.464-1.614 2.842-3.218 4.443-4.684l-.757-.826zm-4.516 4.757c-.427.47-.784.737-1.091.887a1.88 1.88 0 0 1-.866.197c-.307 0-.62-.054-1.02-.12a8.219 8.219 0 0 0-1.339-.14l-.008 1.12c.407.003.777.06 1.163.125.372.062.785.136 1.204.136.435 0 .885-.079 1.36-.312.469-.23.935-.598 1.427-1.14l-.83-.753zm-4.316.824a8.23 8.23 0 0 0-1.342.122c-.4.062-.713.112-1.02.108a1.885 1.885 0 0 1-.865-.208c-.304-.155-.658-.425-1.078-.902l-.84.742c.485.549.946.923 1.411 1.159.473.24.922.323 1.357.329.42.005.833-.063 1.206-.12.386-.06.757-.113 1.163-.11l.008-1.12zm-4.305-.88c-1.417-1.602-2.824-3.282-4.455-4.815l-.767.817c1.581 1.486 2.94 3.108 4.382 4.74l.84-.742zm-4.44-4.8a19.134 19.134 0 0 0-13.473-5.636l-.007 1.121a18.013 18.013 0 0 1 12.683 5.303l.796-.789zm-13.473-5.636c-3.89-.024-7.758 1.116-10.634 3.115l.64.92c2.667-1.854 6.303-2.938 9.987-2.914l.007-1.12zm-9.754 3.579v-.002l-1.12-.007v.002l1.12.007zm-.873.459l.028.019.627-.929-.029-.02-.626.93zm.034-.914c-.439.289-.83.596-1.218.899l.69.883c.394-.308.75-.586 1.144-.845l-.616-.937zm-1.206.89c-1.506 1.109-4.163 3.103-5.55 4.672l.839.742c1.292-1.462 3.843-3.384 5.376-4.512l-.664-.903zm-5.55 4.672c-.879.992-2.315 1.553-3.611 1.857a13.554 13.554 0 0 1-2.258.327l-.031.001h-.009l.017.56.016.56h.017a3.269 3.269 0 0 0 .192-.01 14.663 14.663 0 0 0 2.312-.347c1.361-.32 3.08-.947 4.194-2.206l-.84-.742zm-6.452 2.742l-.03 4.68 1.12.007.03-4.68-1.12-.007zm.53 4.684l.029.56.003-.001h.019c.016-.002.042-.002.075-.003a8.701 8.701 0 0 1 1.204.056c.352.042.71.111 1.016.219.314.11.524.244.64.381l.858-.72c-.299-.356-.723-.576-1.127-.718a5.997 5.997 0 0 0-1.254-.275 9.826 9.826 0 0 0-1.456-.06h-.026l-.007.001h-.003l.028.56zm2.987 1.213c.045.053.141.238.274.635.124.37.257.849.405 1.416.292 1.12.639 2.57 1.067 4.041l1.076-.313c-.423-1.452-.759-2.86-1.059-4.011-.148-.57-.29-1.08-.426-1.489-.128-.381-.28-.763-.48-1.001l-.857.722zm1.74 6.07a18.785 18.785 0 0 0 1.091 3.102l1.024-.456a17.46 17.46 0 0 1-1.027-2.916l-1.088.27zm1.086 3.09c.413.984.903 1.914 1.477 2.69l.9-.666c-.504-.683-.954-1.527-1.343-2.457l-1.034.433zm2.295 2.779l.006-.005-.736-.845-.006.005.736.845zm-.83-.12a19.011 19.011 0 0 0 15.804 8.585l.007-1.12a17.891 17.891 0 0 1-14.875-8.08l-.937.615zm15.804 8.585a19.002 19.002 0 0 0 17.374-10.971l-1.017-.472a17.881 17.881 0 0 1-16.35 10.323l-.007 1.12zm17.3-10.854l.015-.018-.87-.707-.014.018.87.707zm.057-.077l.043-.07-.954-.589-.043.07.954.589zm.046-.076c.712-1.182 1.409-3.338 1.988-5.24.296-.97.563-1.881.797-2.62.117-.369.222-.684.315-.935.098-.262.17-.415.212-.483l-.949-.597a4.058 4.058 0 0 0-.312.688c-.104.277-.216.614-.334.988-.236.746-.51 1.68-.8 2.633-.593 1.945-1.251 3.95-1.876 4.988l.96.578zm3.312-9.278c.201-.32.58-.527.986-.65a3.379 3.379 0 0 1 .7-.132h.001-.002l-.024-.56-.025-.56h-.003l-.006.001-.019.001a3.467 3.467 0 0 0-.273.029 4.53 4.53 0 0 0-.674.148c-.508.154-1.197.469-1.61 1.126l.95.597zm1.661-1.342l-.032.56h-.001.007l.037.003a3.395 3.395 0 0 1 .654.137c.405.129.781.34.978.663l.956-.584c-.404-.663-1.089-.986-1.595-1.147a4.488 4.488 0 0 0-.969-.19l-.002-.001h-.001l-.032.56zm1.643 1.363c.042.069.111.223.206.486.09.252.191.569.303.938.224.743.479 1.657.762 2.631.555 1.91 1.224 4.074 1.921 5.266l.967-.566c-.612-1.047-1.244-3.06-1.812-5.012-.278-.956-.539-1.894-.766-2.643a20.336 20.336 0 0 0-.321-.992 3.967 3.967 0 0 0-.304-.692l-.956.584zm3.195 9.326l.042.07.961-.575-.042-.071-.961.576zm.073.116l.013.018.9-.667-.013-.018-.9.667zm-.048-.086a19 19 0 0 0 17.23 11.195l.007-1.12a17.88 17.88 0 0 1-16.215-10.534l-1.022.46zm17.23 11.195a19.005 19.005 0 0 0 15.911-8.381l-.929-.627a17.886 17.886 0 0 1-14.975 7.887l-.007 1.12zm14.902-8.562l.001.005 1.089-.265-.001-.005-1.089.265zm.992.211c.585-.77 1.078-1.695 1.501-2.67l-1.028-.446c-.403.928-.854 1.765-1.365 2.439l.892.677zm1.495-2.658c.456-.985.832-2.016 1.113-3.087l-1.084-.285a17.476 17.476 0 0 1-1.046 2.902l1.017.47zm1.107-3.066c.448-1.47.802-2.913 1.098-4.032.149-.566.283-1.043.408-1.41.134-.397.23-.578.273-.628l-.848-.732c-.205.237-.358.62-.487 1-.137.407-.279.916-.429 1.483-.304 1.145-.647 2.55-1.087 3.992l1.072.327zm1.779-6.07c.12-.139.331-.27.637-.375.3-.103.647-.167.988-.205a8.188 8.188 0 0 1 1.165-.04l.072.003.017.001h.004l.037-.559.037-.559h-.01l-.025-.002a8.55 8.55 0 0 0-.405-.01c-.262 0-.622.01-1.014.053-.389.042-.825.12-1.231.26-.4.137-.818.352-1.12.7l.848.733zm3.48-1.171l.03-4.68-1.12-.007-.03 4.68 1.12.007zm-.53-4.684l.024-.56h-.008a5.053 5.053 0 0 1-.159-.01 13.246 13.246 0 0 1-2.09-.346c-1.273-.321-2.687-.9-3.553-1.905l-.849.732c1.095 1.271 2.787 1.92 4.129 2.259a14.314 14.314 0 0 0 2.276.377 8.147 8.147 0 0 0 .206.013l.024-.56z" fill="#111B2C"/><path fill-rule="evenodd" clip-rule="evenodd" d="M97.298 35.597c0 10.093-8.753 18.276-19.55 18.276-10.212 0-18.595-7.319-19.474-16.65a15.93 15.93 0 0 0-.076 1.558c0 10.093 9.514 18.275 21.25 18.275 10.116 0 18.581-6.08 20.725-14.221 1.761 8.565 10.46 15.07 20.925 15.07 11.736 0 21.25-8.181 21.25-18.274 0-.525-.026-1.045-.076-1.559-.88 9.332-9.263 16.65-19.474 16.65-10.797 0-19.55-8.181-19.55-18.275 0-3.733 1.197-7.204 3.252-10.097-3.005 2.444-5.182 5.635-6.128 9.227-.81-3.938-3.086-7.442-6.327-10.077 2.055 2.893 3.253 6.364 3.253 10.097z" fill="#111B2C" fill-opacity=".21"/><path d="M27.356 111.33v5.64h-7.658v23.262h-7.04V116.97H5v-5.64h22.356zm18.272 28.902l-6.01-10.91h-1.689v10.91h-7.04V111.33h11.816c2.278 0 4.213.398 5.805 1.194 1.62.796 2.827 1.894 3.623 3.294.796 1.372 1.194 2.909 1.194 4.611 0 1.921-.549 3.637-1.647 5.146-1.07 1.51-2.662 2.58-4.776 3.211l6.67 11.446h-7.946zM37.93 124.34h4.364c1.29 0 2.25-.316 2.882-.947.659-.631.988-1.523.988-2.676 0-1.098-.33-1.962-.988-2.594-.631-.631-1.592-.947-2.882-.947H37.93v7.164z" fill="#486D9C"/><path d="M80.05 111.33l-10.005 19.35v9.552h-7.04v-9.552L53 111.33h7.987l5.6 12.104 5.557-12.104h7.905z" fill="#FEC63B" filter="url(#q5sjbe30ei)"/><path d="M120.885 135.127h-10.786l-1.729 5.105H101l10.457-28.902h8.152l10.458 28.902h-7.452l-1.73-5.105zm-1.811-5.435l-3.582-10.581-3.541 10.581h7.123zm32.566-18.362v5.64h-7.657v23.262h-7.041V116.97h-7.657v-5.64h22.355z" fill="#486D9C"/><path fill-rule="evenodd" clip-rule="evenodd" d="M73.53 130.482c.297 1.01.698 1.968 1.201 2.874a13.457 13.457 0 0 0 5.147 5.228c2.223 1.235 4.734 1.853 7.534 1.853 3.43 0 6.367-.892 8.81-2.676 2.443-1.812 4.076-4.282 4.9-7.411h-7.74c-.577 1.208-1.4 2.127-2.47 2.759-1.044.631-2.238.947-3.583.947-2.168 0-3.924-.755-5.27-2.265-1.344-1.509-2.017-3.527-2.017-6.052 0-2.525.673-4.542 2.018-6.052 1.344-1.51 3.101-2.264 5.27-2.264 1.344 0 2.538.315 3.581.947 1.07.631 1.894 1.55 2.47 2.758h7.741c-.824-3.129-2.457-5.599-4.9-7.411-2.442-1.811-5.38-2.717-8.81-2.717-.954 0-1.875.073-2.762.22l-11.12 19.262z" fill="#FEC63B" filter="url(#oyvfmhcsgj)"/><path d="M87.08 121.283c.625.168 1.054.934.955 1.719-.097.781-.676 1.283-1.302 1.119-.62-.161-1.055-.93-.961-1.716.092-.783.681-1.281 1.309-1.122zm3.621 1.429c.573.314.657 1.079.2 1.717-.474.637-1.31.904-1.88.596-.573-.31-.653-1.073-.186-1.707.464-.641 1.3-.908 1.866-.606zm-7.056-.656c.655.031 1.299.698 1.464 1.48.135.784-.259 1.397-.908 1.367-.65-.029-1.29-.689-1.443-1.476-.152-.786.254-1.399.887-1.371zm9.114 3.597c.481.412.359 1.137-.29 1.607-.647.471-1.566.516-2.06.094-.496-.422-.365-1.139.27-1.62.655-.458 1.58-.505 2.08-.081zm-2.55 3.982c-.127.385-.656.657-1.153.642-1.036-.03-1.841-1.134-2.849-1.532-1.007-.398-2.37-.117-3.121-.825-.43-.396-.573-1.054-.337-1.461.327-.56 1.36-.523 2.069-.747.937-.283 1.862-1.144 2.88-.742 1.012.399 1.136 1.656 1.59 2.506.37.711 1.144 1.493.922 2.159z" fill="#FEC63B" filter="url(#3hqbsszt6k)"/><defs><linearGradient id="li6b9zr1xb" x1="30.148" y1="53.549" x2="58.623" y2="83.299" gradientUnits="userSpaceOnUse"><stop stop-color="#334D71"/><stop offset="1" stop-color="#1F2F45"/></linearGradient><linearGradient id="xfc67nh9ec" x1="32.342" y1="-52.214" x2="142.779" y2="88.756" gradientUnits="userSpaceOnUse"><stop stop-color="#6BA0E2"/><stop offset="1" stop-color="#131E32"/></linearGradient><linearGradient id="dbqt38678e" x1="28.253" y1="-66.147" x2="150.918" y2="83.689" gradientUnits="userSpaceOnUse"><stop stop-color="#6BA0E2"/><stop offset="1" stop-color="#131E32"/></linearGradient><linearGradient id="i5lnucjajf" x1="95.165" y1="18.825" x2="61.61" y2="18.825" gradientUnits="userSpaceOnUse"><stop stop-color="#293E5D"/><stop offset="1" stop-color="#4595FF"/></linearGradient><linearGradient id="hrjtrxba1g" x1="139.756" y1="19.114" x2="106.201" y2="19.114" gradientUnits="userSpaceOnUse"><stop stop-color="#293E5D"/><stop offset="1" stop-color="#4595FF"/></linearGradient><filter id="q5sjbe30ei" x="40.971" y="99.301" width="51.108" height="52.961" filterUnits="userSpaceOnUse" color-interpolation-filters="sRGB"><feFlood flood-opacity="0" result="BackgroundImageFix"/><feColorMatrix in="SourceAlpha" values="0 0 0 0 0 0 0 0 0 0 0 0 0 0 0 0 0 0 127 0" result="hardAlpha"/><feOffset/><feGaussianBlur stdDeviation="6.015"/><feColorMatrix values="0 0 0 0 0.964706 0 0 0 0 0.670588 0 0 0 0 0.14902 0 0 0 0.420892 0"/><feBlend in2="BackgroundImageFix" result="effect1_dropShadow_35_3051"/><feBlend in="SourceGraphic" in2="effect1_dropShadow_35_3051" result="shape"/></filter><filter id="oyvfmhcsgj" x="61.5" y="98.971" width="51.651" height="53.496" filterUnits="userSpaceOnUse" color-interpolation-filters="sRGB"><feFlood flood-opacity="0" result="BackgroundImageFix"/><feColorMatrix in="SourceAlpha" values="0 0 0 0 0 0 0 0 0 0 0 0 0 0 0 0 0 0 127 0" result="hardAlpha"/><feOffset/><feGaussianBlur stdDeviation="6.015"/><feColorMatrix values="0 0 0 0 0.964706 0 0 0 0 0.670588 0 0 0 0 0.14902 0 0 0 0.420892 0"/><feBlend in2="BackgroundImageFix" result="effect1_dropShadow_35_3051"/><feBlend in="SourceGraphic" in2="effect1_dropShadow_35_3051" result="shape"/></filter><filter id="3hqbsszt6k" x="76.897" y="115.514" width="21.895" height="20.503" filterUnits="userSpaceOnUse" color-interpolation-filters="sRGB"><feFlood flood-opacity="0" result="BackgroundImageFix"/><feColorMatrix in="SourceAlpha" values="0 0 0 0 0 0 0 0 0 0 0 0 0 0 0 0 0 0 127 0" result="hardAlpha"/><feOffset/><feGaussianBlur stdDeviation="2.87"/><feColorMatrix values="0 0 0 0 0.964706 0 0 0 0 0.670588 0 0 0 0 0.14902 0 0 0 0.420892 0"/><feBlend in2="BackgroundImageFix" result="effect1_dropShadow_35_3051"/><feBlend in="SourceGraphic" in2="effect1_dropShadow_35_3051" result="shape"/></filter><radialGradient id="8tu35vdola" cx="0" cy="0" r="1" gradientUnits="userSpaceOnUse" gradientTransform="matrix(0 6.88095 -57.9784 0 99.423 102.85)"><stop stop-color="#080F1A"/><stop offset="1" stop-color="#0F2638" stop-opacity=".01"/></radialGradient></defs></svg>